# xmcd CD database file
# Copyright (C) 1997 Ti Kan
# 
# Track frame offsets:
#     150
#     16143
#     34933
#     51813
#     65605
#     78593
#     94490
#     110760
# 
# Disc length: 1697 seconds
# 
# Revision: 1
# Processed by: cddbd v1.4b41PL1 Copyright (c) Steve Scherf et al.
# Submitted via: DiscPlay 4.0.3
# 
DISCID=6a069f08
DTITLE=Juice Newton - Old Flame
DYEAR=1900
DGENRE=
TTITLE0=Cheap Love
TTITLE1=You Make Me Want To Make You Mine
TTITLE2=Hurt
TTITLE3=Old Flame
TTITLE4=Stuck In The Middle With You
TTITLE5=Feel A Whole Lot Better
TTITLE6=What Can I Do With My Heart
TTITLE7=Let Your Woman Take Care Of You
EXTD=
EXTT0=
EXTT1=
EXTT2=
EXTT3=
EXTT4=
EXTT5=
EXTT6=
EXTT7=
PLAYORDER=
